<mxfile host="app.diagrams.net" modified="2021-02-25T12:20:55.135Z" agent="5.0 (Macintosh; Intel Mac OS X 10_15_6) AppleWebKit/605.1.15 (KHTML, like Gecko) Version/14.0.3 Safari/605.1.15" etag="L77ZA7_TRnRYXRM_U0Y5" version="14.4.3" type="github" pages="2">
  <diagram id="9fD9goAlEW5F1DG-xID0" name="Page-1">
    <mxGraphModel dx="878" dy="620" grid="1" gridSize="10" guides="1" tooltips="1" connect="1" arrows="1" fold="1" page="1" pageScale="1" pageWidth="850" pageHeight="1100" math="0" shadow="0">
      <root>
        <mxCell id="0" />
        <mxCell id="1" parent="0" />
        <mxCell id="6zLcicrYt3kFBsztM3Yq-1" value="" style="rounded=0;whiteSpace=wrap;html=1;" parent="1" vertex="1">
          <mxGeometry x="402" y="40" width="120" height="160" as="geometry" />
        </mxCell>
        <mxCell id="6zLcicrYt3kFBsztM3Yq-2" value="" style="endArrow=classic;html=1;exitX=0.5;exitY=1;exitDx=0;exitDy=0;" parent="1" source="6zLcicrYt3kFBsztM3Yq-1" edge="1">
          <mxGeometry width="50" height="50" relative="1" as="geometry">
            <mxPoint x="317" y="310" as="sourcePoint" />
            <mxPoint x="560" y="460" as="targetPoint" />
          </mxGeometry>
        </mxCell>
        <mxCell id="6zLcicrYt3kFBsztM3Yq-3" value="" style="endArrow=classic;html=1;exitX=0.5;exitY=1;exitDx=0;exitDy=0;" parent="1" source="6zLcicrYt3kFBsztM3Yq-1" edge="1">
          <mxGeometry width="50" height="50" relative="1" as="geometry">
            <mxPoint x="407" y="160" as="sourcePoint" />
            <mxPoint x="310" y="240" as="targetPoint" />
          </mxGeometry>
        </mxCell>
        <mxCell id="6zLcicrYt3kFBsztM3Yq-4" value="Teacher" style="rounded=1;whiteSpace=wrap;html=1;fillColor=#dae8fc;strokeColor=#6c8ebf;" parent="1" vertex="1">
          <mxGeometry x="422" y="70" width="80" height="40" as="geometry" />
        </mxCell>
        <mxCell id="6zLcicrYt3kFBsztM3Yq-5" value="Student" style="rounded=1;whiteSpace=wrap;html=1;fillColor=#dae8fc;strokeColor=#6c8ebf;" parent="1" vertex="1">
          <mxGeometry x="422" y="130" width="80" height="40" as="geometry" />
        </mxCell>
        <mxCell id="6zLcicrYt3kFBsztM3Yq-6" value="" style="endArrow=classic;html=1;exitX=0.5;exitY=1;exitDx=0;exitDy=0;" parent="1" source="6zLcicrYt3kFBsztM3Yq-76" edge="1">
          <mxGeometry width="50" height="50" relative="1" as="geometry">
            <mxPoint x="277" y="465" as="sourcePoint" />
            <mxPoint x="190" y="460" as="targetPoint" />
          </mxGeometry>
        </mxCell>
        <mxCell id="6zLcicrYt3kFBsztM3Yq-7" value="" style="endArrow=classic;html=1;exitX=0.5;exitY=1;exitDx=0;exitDy=0;" parent="1" source="6zLcicrYt3kFBsztM3Yq-76" edge="1">
          <mxGeometry width="50" height="50" relative="1" as="geometry">
            <mxPoint x="287" y="440" as="sourcePoint" />
            <mxPoint x="320" y="460" as="targetPoint" />
          </mxGeometry>
        </mxCell>
        <mxCell id="6zLcicrYt3kFBsztM3Yq-8" value="" style="group" parent="1" vertex="1" connectable="0">
          <mxGeometry x="40" y="490" width="220" height="230" as="geometry" />
        </mxCell>
        <mxCell id="6zLcicrYt3kFBsztM3Yq-9" value="" style="rounded=0;whiteSpace=wrap;html=1;fillColor=#d5e8d4;strokeColor=#82b366;" parent="6zLcicrYt3kFBsztM3Yq-8" vertex="1">
          <mxGeometry width="220" height="230" as="geometry" />
        </mxCell>
        <mxCell id="6zLcicrYt3kFBsztM3Yq-10" value="Teacher" style="rounded=1;whiteSpace=wrap;html=1;" parent="6zLcicrYt3kFBsztM3Yq-8" vertex="1">
          <mxGeometry x="76.52173913043478" y="10" width="76.52173913043478" height="20" as="geometry" />
        </mxCell>
        <mxCell id="6zLcicrYt3kFBsztM3Yq-11" style="edgeStyle=orthogonalEdgeStyle;rounded=0;orthogonalLoop=1;jettySize=auto;html=1;exitX=1;exitY=0;exitDx=0;exitDy=0;fontSize=8;" parent="6zLcicrYt3kFBsztM3Yq-8" edge="1">
          <mxGeometry relative="1" as="geometry">
            <mxPoint x="153.04347826086956" y="110" as="sourcePoint" />
            <mxPoint x="148.2608695652174" y="90" as="targetPoint" />
          </mxGeometry>
        </mxCell>
        <mxCell id="6zLcicrYt3kFBsztM3Yq-12" value="Question" style="rounded=1;whiteSpace=wrap;html=1;fillColor=#dae8fc;strokeColor=#6c8ebf;" parent="6zLcicrYt3kFBsztM3Yq-8" vertex="1">
          <mxGeometry x="28.695652173913043" y="120" width="76.52173913043478" height="17" as="geometry" />
        </mxCell>
        <mxCell id="6zLcicrYt3kFBsztM3Yq-13" value="Test Module" style="rounded=1;whiteSpace=wrap;html=1;" parent="6zLcicrYt3kFBsztM3Yq-8" vertex="1">
          <mxGeometry x="76.52173913043478" y="30" width="76.52173913043478" height="20" as="geometry" />
        </mxCell>
        <mxCell id="6zLcicrYt3kFBsztM3Yq-14" value="Course name" style="rounded=1;whiteSpace=wrap;html=1;fillColor=#dae8fc;strokeColor=#6c8ebf;" parent="6zLcicrYt3kFBsztM3Yq-8" vertex="1">
          <mxGeometry x="76.52173913043478" y="70" width="76.52173913043478" height="20" as="geometry" />
        </mxCell>
        <mxCell id="6zLcicrYt3kFBsztM3Yq-15" value="" style="rounded=1;whiteSpace=wrap;html=1;" parent="6zLcicrYt3kFBsztM3Yq-8" vertex="1">
          <mxGeometry x="76.52173913043478" y="90" width="76.52173913043478" height="20" as="geometry" />
        </mxCell>
        <mxCell id="6zLcicrYt3kFBsztM3Yq-16" value="" style="rounded=1;whiteSpace=wrap;html=1;" parent="6zLcicrYt3kFBsztM3Yq-8" vertex="1">
          <mxGeometry x="28.695652173913043" y="137" width="76.52173913043478" height="20" as="geometry" />
        </mxCell>
        <mxCell id="6zLcicrYt3kFBsztM3Yq-17" value="Answers" style="rounded=1;whiteSpace=wrap;html=1;fillColor=#dae8fc;strokeColor=#6c8ebf;" parent="6zLcicrYt3kFBsztM3Yq-8" vertex="1">
          <mxGeometry x="124.34782608695653" y="120" width="76.52173913043478" height="17" as="geometry" />
        </mxCell>
        <mxCell id="6zLcicrYt3kFBsztM3Yq-18" value="" style="rounded=1;whiteSpace=wrap;html=1;" parent="6zLcicrYt3kFBsztM3Yq-8" vertex="1">
          <mxGeometry x="124.34782608695653" y="137" width="76.52173913043478" height="20" as="geometry" />
        </mxCell>
        <mxCell id="6zLcicrYt3kFBsztM3Yq-19" value="Add" style="shape=delay;whiteSpace=wrap;html=1;fontSize=12;fillColor=#dae8fc;strokeColor=#6c8ebf;" parent="6zLcicrYt3kFBsztM3Yq-8" vertex="1">
          <mxGeometry x="129.1304347826087" y="180" width="66.95652173913044" height="20" as="geometry" />
        </mxCell>
        <mxCell id="6zLcicrYt3kFBsztM3Yq-20" value="Save &amp;amp; Exit" style="rounded=1;whiteSpace=wrap;html=1;fillColor=#dae8fc;strokeColor=#6c8ebf;" parent="6zLcicrYt3kFBsztM3Yq-8" vertex="1">
          <mxGeometry x="28.695652173913043" y="180" width="76.52173913043478" height="20" as="geometry" />
        </mxCell>
        <mxCell id="6zLcicrYt3kFBsztM3Yq-74" value="desktop only?" style="text;html=1;align=center;verticalAlign=middle;resizable=0;points=[];autosize=1;" parent="6zLcicrYt3kFBsztM3Yq-8" vertex="1">
          <mxGeometry x="69.78" y="210" width="90" height="20" as="geometry" />
        </mxCell>
        <mxCell id="6zLcicrYt3kFBsztM3Yq-21" value="" style="group;fillColor=#FF6666;" parent="1" vertex="1" connectable="0">
          <mxGeometry x="280" y="490" width="160" height="230" as="geometry" />
        </mxCell>
        <mxCell id="6zLcicrYt3kFBsztM3Yq-22" value="" style="rounded=0;whiteSpace=wrap;html=1;fillColor=#f8cecc;strokeColor=#b85450;" parent="6zLcicrYt3kFBsztM3Yq-21" vertex="1">
          <mxGeometry width="160" height="230" as="geometry" />
        </mxCell>
        <mxCell id="6zLcicrYt3kFBsztM3Yq-23" value="Teacher" style="rounded=1;whiteSpace=wrap;html=1;fillColor=#f8cecc;strokeColor=#b85450;" parent="6zLcicrYt3kFBsztM3Yq-21" vertex="1">
          <mxGeometry x="40" y="10" width="80" height="20" as="geometry" />
        </mxCell>
        <mxCell id="6zLcicrYt3kFBsztM3Yq-24" value="Results" style="rounded=1;whiteSpace=wrap;html=1;fillColor=#f8cecc;strokeColor=#b85450;" parent="6zLcicrYt3kFBsztM3Yq-21" vertex="1">
          <mxGeometry x="40" y="30" width="80" height="20" as="geometry" />
        </mxCell>
        <mxCell id="6zLcicrYt3kFBsztM3Yq-25" value="necessary?" style="text;html=1;align=center;verticalAlign=middle;resizable=0;points=[];autosize=1;" parent="6zLcicrYt3kFBsztM3Yq-21" vertex="1">
          <mxGeometry x="40" y="120" width="80" height="20" as="geometry" />
        </mxCell>
        <mxCell id="6zLcicrYt3kFBsztM3Yq-26" value="" style="group;fillColor=#f8cecc;strokeColor=#b85450;" parent="1" vertex="1" connectable="0">
          <mxGeometry x="640" y="200" width="120" height="160" as="geometry" />
        </mxCell>
        <mxCell id="6zLcicrYt3kFBsztM3Yq-27" value="" style="rounded=0;whiteSpace=wrap;html=1;fillColor=#f8cecc;strokeColor=#b85450;" parent="6zLcicrYt3kFBsztM3Yq-26" vertex="1">
          <mxGeometry width="120" height="160" as="geometry" />
        </mxCell>
        <mxCell id="6zLcicrYt3kFBsztM3Yq-28" value="Student" style="rounded=1;whiteSpace=wrap;html=1;fillColor=#f8cecc;strokeColor=#b85450;" parent="6zLcicrYt3kFBsztM3Yq-26" vertex="1">
          <mxGeometry x="20" y="10" width="80" height="20" as="geometry" />
        </mxCell>
        <mxCell id="6zLcicrYt3kFBsztM3Yq-29" value="Courses" style="rounded=1;whiteSpace=wrap;html=1;fillColor=#f8cecc;strokeColor=#b85450;" parent="6zLcicrYt3kFBsztM3Yq-26" vertex="1">
          <mxGeometry x="20" y="50" width="80" height="40" as="geometry" />
        </mxCell>
        <mxCell id="6zLcicrYt3kFBsztM3Yq-30" value="My scores" style="rounded=1;whiteSpace=wrap;html=1;fillColor=#f8cecc;strokeColor=#b85450;" parent="6zLcicrYt3kFBsztM3Yq-26" vertex="1">
          <mxGeometry x="20" y="100" width="80" height="40" as="geometry" />
        </mxCell>
        <mxCell id="6zLcicrYt3kFBsztM3Yq-31" value="" style="group;fillColor=#f8cecc;strokeColor=#b85450;" parent="1" vertex="1" connectable="0">
          <mxGeometry x="680" y="490" width="160" height="230" as="geometry" />
        </mxCell>
        <mxCell id="6zLcicrYt3kFBsztM3Yq-32" value="" style="rounded=0;whiteSpace=wrap;html=1;fillColor=#f8cecc;strokeColor=#b85450;" parent="6zLcicrYt3kFBsztM3Yq-31" vertex="1">
          <mxGeometry width="160" height="230" as="geometry" />
        </mxCell>
        <mxCell id="6zLcicrYt3kFBsztM3Yq-33" value="Student" style="rounded=1;whiteSpace=wrap;html=1;fillColor=#f8cecc;strokeColor=#b85450;" parent="6zLcicrYt3kFBsztM3Yq-31" vertex="1">
          <mxGeometry x="40" y="10" width="80" height="20" as="geometry" />
        </mxCell>
        <mxCell id="6zLcicrYt3kFBsztM3Yq-34" value="Results" style="rounded=1;whiteSpace=wrap;html=1;fillColor=#f8cecc;strokeColor=#b85450;" parent="6zLcicrYt3kFBsztM3Yq-31" vertex="1">
          <mxGeometry x="40" y="30" width="80" height="20" as="geometry" />
        </mxCell>
        <mxCell id="6zLcicrYt3kFBsztM3Yq-35" value="necessary?" style="text;html=1;align=center;verticalAlign=middle;resizable=0;points=[];autosize=1;" parent="6zLcicrYt3kFBsztM3Yq-31" vertex="1">
          <mxGeometry x="40" y="130" width="80" height="20" as="geometry" />
        </mxCell>
        <mxCell id="6zLcicrYt3kFBsztM3Yq-36" value="" style="endArrow=classic;html=1;exitX=0.5;exitY=1;exitDx=0;exitDy=0;" parent="1" source="6zLcicrYt3kFBsztM3Yq-27" edge="1">
          <mxGeometry width="50" height="50" relative="1" as="geometry">
            <mxPoint x="697" y="430" as="sourcePoint" />
            <mxPoint x="740" y="400" as="targetPoint" />
          </mxGeometry>
        </mxCell>
        <mxCell id="6zLcicrYt3kFBsztM3Yq-37" value="" style="endArrow=classic;html=1;exitX=0.5;exitY=1;exitDx=0;exitDy=0;" parent="1" source="6zLcicrYt3kFBsztM3Yq-27" edge="1">
          <mxGeometry width="50" height="50" relative="1" as="geometry">
            <mxPoint x="597" y="440" as="sourcePoint" />
            <mxPoint x="660" y="400" as="targetPoint" />
          </mxGeometry>
        </mxCell>
        <mxCell id="6zLcicrYt3kFBsztM3Yq-38" value="" style="rounded=0;whiteSpace=wrap;html=1;" parent="1" vertex="1">
          <mxGeometry x="480" y="490" width="180" height="230" as="geometry" />
        </mxCell>
        <mxCell id="6zLcicrYt3kFBsztM3Yq-39" value="Math" style="rounded=1;whiteSpace=wrap;html=1;fillColor=#dae8fc;strokeColor=#6c8ebf;" parent="1" vertex="1">
          <mxGeometry x="500" y="580" width="80" height="30" as="geometry" />
        </mxCell>
        <mxCell id="6zLcicrYt3kFBsztM3Yq-40" value="Science" style="rounded=1;whiteSpace=wrap;html=1;fillColor=#dae8fc;strokeColor=#6c8ebf;" parent="1" vertex="1">
          <mxGeometry x="500" y="620" width="80" height="30" as="geometry" />
        </mxCell>
        <mxCell id="6zLcicrYt3kFBsztM3Yq-41" value="History" style="rounded=1;whiteSpace=wrap;html=1;fillColor=#dae8fc;strokeColor=#6c8ebf;" parent="1" vertex="1">
          <mxGeometry x="500" y="662" width="80" height="30" as="geometry" />
        </mxCell>
        <mxCell id="6zLcicrYt3kFBsztM3Yq-42" value="Student" style="rounded=1;whiteSpace=wrap;html=1;" parent="1" vertex="1">
          <mxGeometry x="530" y="500" width="80" height="20" as="geometry" />
        </mxCell>
        <mxCell id="6zLcicrYt3kFBsztM3Yq-43" value="Courses" style="rounded=1;whiteSpace=wrap;html=1;" parent="1" vertex="1">
          <mxGeometry x="530" y="520" width="80" height="20" as="geometry" />
        </mxCell>
        <mxCell id="6zLcicrYt3kFBsztM3Yq-44" value="Card" style="rounded=1;whiteSpace=wrap;html=1;fillColor=#f8cecc;strokeColor=#b85450;" parent="1" vertex="1">
          <mxGeometry x="580" y="580" width="30" height="30" as="geometry" />
        </mxCell>
        <mxCell id="6zLcicrYt3kFBsztM3Yq-45" value="Quiz" style="rounded=1;whiteSpace=wrap;html=1;fillColor=#d5e8d4;strokeColor=#82b366;" parent="1" vertex="1">
          <mxGeometry x="610" y="580" width="30" height="30" as="geometry" />
        </mxCell>
        <mxCell id="6zLcicrYt3kFBsztM3Yq-46" value="Card" style="rounded=1;whiteSpace=wrap;html=1;fillColor=#f8cecc;strokeColor=#b85450;" parent="1" vertex="1">
          <mxGeometry x="580" y="620" width="30" height="30" as="geometry" />
        </mxCell>
        <mxCell id="6zLcicrYt3kFBsztM3Yq-47" value="Quiz" style="rounded=1;whiteSpace=wrap;html=1;fillColor=#d5e8d4;strokeColor=#82b366;" parent="1" vertex="1">
          <mxGeometry x="610" y="620" width="30" height="30" as="geometry" />
        </mxCell>
        <mxCell id="6zLcicrYt3kFBsztM3Yq-48" value="Card" style="rounded=1;whiteSpace=wrap;html=1;fillColor=#f8cecc;strokeColor=#b85450;" parent="1" vertex="1">
          <mxGeometry x="580" y="662" width="30" height="30" as="geometry" />
        </mxCell>
        <mxCell id="6zLcicrYt3kFBsztM3Yq-49" value="Quiz" style="rounded=1;whiteSpace=wrap;html=1;fillColor=#d5e8d4;strokeColor=#82b366;" parent="1" vertex="1">
          <mxGeometry x="610" y="662" width="30" height="30" as="geometry" />
        </mxCell>
        <mxCell id="6zLcicrYt3kFBsztM3Yq-50" value="" style="group" parent="1" vertex="1" connectable="0">
          <mxGeometry x="367" y="800" width="190" height="230" as="geometry" />
        </mxCell>
        <mxCell id="6zLcicrYt3kFBsztM3Yq-51" value="" style="rounded=0;whiteSpace=wrap;html=1;" parent="6zLcicrYt3kFBsztM3Yq-50" vertex="1">
          <mxGeometry width="190" height="230" as="geometry" />
        </mxCell>
        <mxCell id="6zLcicrYt3kFBsztM3Yq-52" value="Student" style="rounded=1;whiteSpace=wrap;html=1;" parent="6zLcicrYt3kFBsztM3Yq-50" vertex="1">
          <mxGeometry x="40" y="10" width="100" height="20" as="geometry" />
        </mxCell>
        <mxCell id="6zLcicrYt3kFBsztM3Yq-53" value="Flashcard module" style="rounded=1;whiteSpace=wrap;html=1;" parent="6zLcicrYt3kFBsztM3Yq-50" vertex="1">
          <mxGeometry x="40" y="30" width="100" height="20" as="geometry" />
        </mxCell>
        <mxCell id="6zLcicrYt3kFBsztM3Yq-54" value="Question" style="rounded=1;whiteSpace=wrap;html=1;fillColor=#dae8fc;strokeColor=#6c8ebf;" parent="6zLcicrYt3kFBsztM3Yq-50" vertex="1">
          <mxGeometry x="8.915652173913031" y="100" width="76.52173913043478" height="17" as="geometry" />
        </mxCell>
        <mxCell id="6zLcicrYt3kFBsztM3Yq-55" value="" style="rounded=1;whiteSpace=wrap;html=1;" parent="6zLcicrYt3kFBsztM3Yq-50" vertex="1">
          <mxGeometry x="8.915652173913031" y="117" width="76.52173913043478" height="20" as="geometry" />
        </mxCell>
        <mxCell id="6zLcicrYt3kFBsztM3Yq-56" value="Answers" style="rounded=1;whiteSpace=wrap;html=1;fillColor=#dae8fc;strokeColor=#6c8ebf;" parent="6zLcicrYt3kFBsztM3Yq-50" vertex="1">
          <mxGeometry x="104.56782608695647" y="100" width="76.52173913043478" height="17" as="geometry" />
        </mxCell>
        <mxCell id="6zLcicrYt3kFBsztM3Yq-57" value="[hidden]" style="rounded=1;whiteSpace=wrap;html=1;" parent="6zLcicrYt3kFBsztM3Yq-50" vertex="1">
          <mxGeometry x="104.56782608695647" y="117" width="76.52173913043478" height="20" as="geometry" />
        </mxCell>
        <mxCell id="6zLcicrYt3kFBsztM3Yq-58" value="Next" style="shape=delay;whiteSpace=wrap;html=1;fontSize=12;fillColor=#dae8fc;strokeColor=#6c8ebf;" parent="6zLcicrYt3kFBsztM3Yq-50" vertex="1">
          <mxGeometry x="109.35043478260866" y="160" width="66.95652173913044" height="20" as="geometry" />
        </mxCell>
        <mxCell id="6zLcicrYt3kFBsztM3Yq-59" value="Show answer" style="rounded=1;whiteSpace=wrap;html=1;fillColor=#dae8fc;strokeColor=#6c8ebf;" parent="6zLcicrYt3kFBsztM3Yq-50" vertex="1">
          <mxGeometry x="8.915652173913031" y="160" width="76.52173913043478" height="20" as="geometry" />
        </mxCell>
        <mxCell id="6zLcicrYt3kFBsztM3Yq-60" value="Course name" style="rounded=1;whiteSpace=wrap;html=1;" parent="6zLcicrYt3kFBsztM3Yq-50" vertex="1">
          <mxGeometry x="40" y="50" width="100" height="20" as="geometry" />
        </mxCell>
        <mxCell id="6zLcicrYt3kFBsztM3Yq-61" value="" style="group;fillColor=#d5e8d4;strokeColor=#82b366;" parent="1" vertex="1" connectable="0">
          <mxGeometry x="607" y="800" width="190" height="280" as="geometry" />
        </mxCell>
        <mxCell id="6zLcicrYt3kFBsztM3Yq-62" value="" style="rounded=0;whiteSpace=wrap;html=1;fillColor=#d5e8d4;strokeColor=#82b366;" parent="6zLcicrYt3kFBsztM3Yq-61" vertex="1">
          <mxGeometry width="190" height="280" as="geometry" />
        </mxCell>
        <mxCell id="6zLcicrYt3kFBsztM3Yq-63" value="Student" style="rounded=1;whiteSpace=wrap;html=1;" parent="6zLcicrYt3kFBsztM3Yq-61" vertex="1">
          <mxGeometry x="50" y="11.304347826086955" width="80" height="22.60869565217391" as="geometry" />
        </mxCell>
        <mxCell id="6zLcicrYt3kFBsztM3Yq-64" value="Quiz module" style="rounded=1;whiteSpace=wrap;html=1;" parent="6zLcicrYt3kFBsztM3Yq-61" vertex="1">
          <mxGeometry x="50" y="33.91304347826087" width="80" height="22.60869565217391" as="geometry" />
        </mxCell>
        <mxCell id="6zLcicrYt3kFBsztM3Yq-65" value="Question" style="rounded=1;whiteSpace=wrap;html=1;fillColor=#dae8fc;strokeColor=#6c8ebf;" parent="6zLcicrYt3kFBsztM3Yq-61" vertex="1">
          <mxGeometry x="51.73565217391303" y="101.7391304347826" width="76.52173913043478" height="19.217391304347824" as="geometry" />
        </mxCell>
        <mxCell id="6zLcicrYt3kFBsztM3Yq-66" value="" style="rounded=1;whiteSpace=wrap;html=1;" parent="6zLcicrYt3kFBsztM3Yq-61" vertex="1">
          <mxGeometry x="51.73565217391303" y="120.95652173913042" width="76.52173913043478" height="22.60869565217391" as="geometry" />
        </mxCell>
        <mxCell id="6zLcicrYt3kFBsztM3Yq-67" value="Next" style="shape=delay;whiteSpace=wrap;html=1;fontSize=12;fillColor=#dae8fc;strokeColor=#6c8ebf;" parent="6zLcicrYt3kFBsztM3Yq-61" vertex="1">
          <mxGeometry x="110.00043478260866" y="180.86956521739128" width="66.95652173913044" height="22.60869565217391" as="geometry" />
        </mxCell>
        <mxCell id="6zLcicrYt3kFBsztM3Yq-68" value="Submit &amp;amp; Exit" style="rounded=1;whiteSpace=wrap;html=1;fillColor=#dae8fc;strokeColor=#6c8ebf;" parent="6zLcicrYt3kFBsztM3Yq-61" vertex="1">
          <mxGeometry x="36.74" y="219.99695652173912" width="110" height="22.60869565217391" as="geometry" />
        </mxCell>
        <mxCell id="6zLcicrYt3kFBsztM3Yq-69" value="Course name" style="rounded=1;whiteSpace=wrap;html=1;" parent="6zLcicrYt3kFBsztM3Yq-61" vertex="1">
          <mxGeometry x="50" y="56.52173913043478" width="80" height="22.60869565217391" as="geometry" />
        </mxCell>
        <mxCell id="6zLcicrYt3kFBsztM3Yq-70" value="Choices" style="rounded=1;whiteSpace=wrap;html=1;fillColor=#dae8fc;strokeColor=#6c8ebf;" parent="6zLcicrYt3kFBsztM3Yq-61" vertex="1">
          <mxGeometry x="53.4778260869565" y="150.3478260869565" width="76.52173913043478" height="19.217391304347824" as="geometry" />
        </mxCell>
        <mxCell id="6zLcicrYt3kFBsztM3Yq-71" value="Back" style="shape=delay;whiteSpace=wrap;html=1;fontSize=12;fillColor=#dae8fc;strokeColor=#6c8ebf;flipH=1;" parent="6zLcicrYt3kFBsztM3Yq-61" vertex="1">
          <mxGeometry x="20.000434782608664" y="180.86956521739128" width="66.95652173913044" height="22.60869565217391" as="geometry" />
        </mxCell>
        <mxCell id="6zLcicrYt3kFBsztM3Yq-80" value="desktop only?" style="text;html=1;align=center;verticalAlign=middle;resizable=0;points=[];autosize=1;" parent="6zLcicrYt3kFBsztM3Yq-61" vertex="1">
          <mxGeometry x="46.74000000000001" y="256.6100000000001" width="90" height="20" as="geometry" />
        </mxCell>
        <mxCell id="6zLcicrYt3kFBsztM3Yq-72" value="" style="endArrow=classic;html=1;exitX=0.5;exitY=1;exitDx=0;exitDy=0;" parent="1" source="6zLcicrYt3kFBsztM3Yq-38" edge="1">
          <mxGeometry width="50" height="50" relative="1" as="geometry">
            <mxPoint x="747" y="780" as="sourcePoint" />
            <mxPoint x="650" y="770" as="targetPoint" />
          </mxGeometry>
        </mxCell>
        <mxCell id="6zLcicrYt3kFBsztM3Yq-73" value="" style="endArrow=classic;html=1;exitX=0.5;exitY=1;exitDx=0;exitDy=0;" parent="1" source="6zLcicrYt3kFBsztM3Yq-38" edge="1">
          <mxGeometry width="50" height="50" relative="1" as="geometry">
            <mxPoint x="577" y="780" as="sourcePoint" />
            <mxPoint x="500" y="770" as="targetPoint" />
          </mxGeometry>
        </mxCell>
        <mxCell id="6zLcicrYt3kFBsztM3Yq-75" value="" style="group" parent="1" connectable="0" vertex="1">
          <mxGeometry x="187" y="260" width="120" height="160" as="geometry" />
        </mxCell>
        <mxCell id="6zLcicrYt3kFBsztM3Yq-76" value="" style="rounded=0;whiteSpace=wrap;html=1;" parent="6zLcicrYt3kFBsztM3Yq-75" vertex="1">
          <mxGeometry width="120" height="160" as="geometry" />
        </mxCell>
        <mxCell id="6zLcicrYt3kFBsztM3Yq-77" value="Teacher" style="rounded=1;whiteSpace=wrap;html=1;" parent="6zLcicrYt3kFBsztM3Yq-75" vertex="1">
          <mxGeometry x="20" y="10" width="80" height="20" as="geometry" />
        </mxCell>
        <mxCell id="6zLcicrYt3kFBsztM3Yq-78" value="Test Module" style="rounded=1;whiteSpace=wrap;html=1;fillColor=#dae8fc;strokeColor=#6c8ebf;" parent="6zLcicrYt3kFBsztM3Yq-75" vertex="1">
          <mxGeometry x="20" y="50" width="80" height="40" as="geometry" />
        </mxCell>
        <mxCell id="6zLcicrYt3kFBsztM3Yq-79" value="Results" style="rounded=1;whiteSpace=wrap;html=1;" parent="6zLcicrYt3kFBsztM3Yq-75" vertex="1">
          <mxGeometry x="20" y="100" width="80" height="40" as="geometry" />
        </mxCell>
        <mxCell id="GenMaW30tC9q8amXC3VV-1" value="teacherAuthoring.html" style="text;html=1;resizable=0;autosize=1;align=center;verticalAlign=middle;points=[];fillColor=none;strokeColor=none;rounded=0;" parent="1" vertex="1">
          <mxGeometry x="90" y="470" width="130" height="20" as="geometry" />
        </mxCell>
        <mxCell id="GenMaW30tC9q8amXC3VV-3" value="studentMain.html" style="text;html=1;resizable=0;autosize=1;align=center;verticalAlign=middle;points=[];fillColor=none;strokeColor=none;rounded=0;" parent="1" vertex="1">
          <mxGeometry x="505" y="470" width="110" height="20" as="geometry" />
        </mxCell>
        <mxCell id="GenMaW30tC9q8amXC3VV-5" value="" style="rounded=0;whiteSpace=wrap;html=1;fillColor=#d5e8d4;strokeColor=#82b366;" parent="1" vertex="1">
          <mxGeometry x="30" y="30" width="30" height="30" as="geometry" />
        </mxCell>
        <mxCell id="cYy0Dv5qFqre1TIyRevT-1" value="" style="rounded=0;whiteSpace=wrap;html=1;fillColor=#dae8fc;strokeColor=#6c8ebf;" vertex="1" parent="1">
          <mxGeometry x="30" y="75" width="30" height="30" as="geometry" />
        </mxCell>
        <mxCell id="cYy0Dv5qFqre1TIyRevT-2" value="" style="rounded=0;whiteSpace=wrap;html=1;fillColor=#f8cecc;strokeColor=#b85450;" vertex="1" parent="1">
          <mxGeometry x="30" y="120" width="30" height="30" as="geometry" />
        </mxCell>
        <mxCell id="cYy0Dv5qFqre1TIyRevT-3" value="desktop only" style="text;html=1;align=center;verticalAlign=middle;resizable=0;points=[];autosize=1;" vertex="1" parent="1">
          <mxGeometry x="72" y="40" width="80" height="20" as="geometry" />
        </mxCell>
        <mxCell id="cYy0Dv5qFqre1TIyRevT-4" value="delete?" style="text;html=1;align=center;verticalAlign=middle;resizable=0;points=[];autosize=1;" vertex="1" parent="1">
          <mxGeometry x="73" y="125" width="50" height="20" as="geometry" />
        </mxCell>
        <mxCell id="cYy0Dv5qFqre1TIyRevT-5" value="general" style="text;html=1;align=center;verticalAlign=middle;resizable=0;points=[];autosize=1;" vertex="1" parent="1">
          <mxGeometry x="69" y="80" width="60" height="20" as="geometry" />
        </mxCell>
        <mxCell id="cYy0Dv5qFqre1TIyRevT-7" value="teacherMain.html" style="text;html=1;align=center;verticalAlign=middle;resizable=0;points=[];autosize=1;" vertex="1" parent="1">
          <mxGeometry x="190" y="239" width="110" height="20" as="geometry" />
        </mxCell>
        <mxCell id="cYy0Dv5qFqre1TIyRevT-8" value="index.html" style="text;html=1;align=center;verticalAlign=middle;resizable=0;points=[];autosize=1;" vertex="1" parent="1">
          <mxGeometry x="425" y="20" width="70" height="20" as="geometry" />
        </mxCell>
        <mxCell id="cYy0Dv5qFqre1TIyRevT-9" value="studentTestTaking.html" style="text;html=1;align=center;verticalAlign=middle;resizable=0;points=[];autosize=1;" vertex="1" parent="1">
          <mxGeometry x="630" y="780" width="140" height="20" as="geometry" />
        </mxCell>
        <mxCell id="cYy0Dv5qFqre1TIyRevT-10" value="studentPractice.html" style="text;html=1;align=center;verticalAlign=middle;resizable=0;points=[];autosize=1;" vertex="1" parent="1">
          <mxGeometry x="402" y="780" width="120" height="20" as="geometry" />
        </mxCell>
      </root>
    </mxGraphModel>
  </diagram>
  <diagram id="BmSE2aoRar_VW7veop-z" name="Page-2">
    <mxGraphModel dx="878" dy="620" grid="1" gridSize="10" guides="1" tooltips="1" connect="1" arrows="1" fold="1" page="1" pageScale="1" pageWidth="850" pageHeight="1100" math="0" shadow="0">
      <root>
        <mxCell id="NoqR4jY5gbtJgDWmboDG-0" />
        <mxCell id="NoqR4jY5gbtJgDWmboDG-1" parent="NoqR4jY5gbtJgDWmboDG-0" />
      </root>
    </mxGraphModel>
  </diagram>
</mxfile>
